<svg width="85" height="170" viewBox="0 0 85 170" fill="none" xmlns="http://www.w3.org/2000/svg">
<g id="initials-logo">
<line id="right" x1="83.5" x2="83.5" y2="170" stroke="white" stroke-width="3"/>
<line id="top" x1="3" y1="1.5" x2="82" y2="1.5" stroke="white" stroke-width="3"/>
<line id="bottom" x1="3" y1="168.5" x2="82" y2="168.5" stroke="white" stroke-width="3"/>
<line id="left" x1="1.5" x2="1.5" y2="170" stroke="white" stroke-width="3"/>
<path id="initials" d="M52.4772 59.25H31.3522L27.3222 69H16.5322L36.8122 23.5H47.2122L67.5572 69H56.5072L52.4772 59.25ZM49.1622 51.255L41.9472 33.835L34.7322 51.255H49.1622ZM52.4861 148L43.7111 135.325H43.1911H34.0261V148H23.4961V102.5H43.1911C47.2211 102.5 50.7094 103.172 53.6561 104.515C56.6461 105.858 58.9427 107.765 60.5461 110.235C62.1494 112.705 62.9511 115.63 62.9511 119.01C62.9511 122.39 62.1277 125.315 60.4811 127.785C58.8777 130.212 56.5811 132.075 53.5911 133.375L63.7961 148H52.4861ZM52.2911 119.01C52.2911 116.453 51.4677 114.503 49.8211 113.16C48.1744 111.773 45.7694 111.08 42.6061 111.08H34.0261V126.94H42.6061C45.7694 126.94 48.1744 126.247 49.8211 124.86C51.4677 123.473 52.2911 121.523 52.2911 119.01Z" fill="white"/>
</g>
</svg>
